<?xml version="1.0" encoding="UTF-8" standalone="no"?>
<!DOCTYPE svg PUBLIC "-//W3C//DTD SVG 1.1//EN" "http://www.w3.org/Graphics/SVG/1.1/DTD/svg11.dtd">
<svg width="100%" height="100%" viewBox="0 0 100 100" version="1.1" xmlns="http://www.w3.org/2000/svg" xmlns:xlink="http://www.w3.org/1999/xlink" xml:space="preserve" xmlns:serif="http://www.serif.com/" style="fill-rule:evenodd;clip-rule:evenodd;stroke-linejoin:round;stroke-miterlimit:2;">
    <g transform="matrix(0.209263,0,0,0.209263,0,0)">
        <g>
            <path d="M443.733,307.2C434.307,307.2 426.666,314.841 426.666,324.267L426.666,426.667C426.666,436.093 419.025,443.734 409.599,443.734L68.267,443.734C58.841,443.734 51.2,436.093 51.2,426.667L51.2,324.267C51.2,314.841 43.559,307.2 34.133,307.2C24.707,307.2 17.066,314.841 17.066,324.267L17.066,426.667C17.066,454.944 39.989,477.867 68.266,477.867L409.6,477.867C437.877,477.867 460.8,454.944 460.8,426.667L460.8,324.267C460.8,314.841 453.159,307.2 443.733,307.2Z" style="fill-rule:nonzero;"/>
        </g>
    </g>
    <g transform="matrix(0.209263,0,0,0.209263,0,0)">
        <g>
            <path d="M335.947,295.134C329.333,288.747 318.848,288.747 312.235,295.134L256,351.334L256,17.067C256,7.641 248.359,0 238.933,0C229.507,0 221.866,7.641 221.866,17.067L221.866,351.335L165.665,295.134C158.885,288.586 148.081,288.774 141.533,295.553C135.145,302.167 135.145,312.652 141.533,319.266L226.866,404.599C233.523,411.272 244.329,411.286 251.002,404.63L336.366,319.266C342.915,312.486 342.727,301.682 335.947,295.134Z" style="fill-rule:nonzero;"/>
        </g>
    </g>
</svg>
